# xmcd
#
# Track frame offsets:
#	150
#	26991
#	53226
#	71543
#	96392
#	128167
#	154691
#	189220
#	212969
#	236456
#
# Disc length: 3661 seconds
#
# Revision: 0
# Processed by: cddbd v1.5.1PL2 Copyright (c) Steve Scherf et al.
# Submitted via: dBpowerAMP V4.0
#
DISCID=8a0e4b0a
DTITLE=Lucinda Williams - Universal Hall - Berlin, Germany - May 16, 2003
DYEAR=1900
DGENRE=Country Rock
TTITLE0=Side of the Road
TTITLE1=Lake Charles
TTITLE2=Crescent City
TTITLE3=Greenville
TTITLE4=Something About Happens When We Talk
TTITLE5=American Dream
TTITLE6=Get Right With God
TTITLE7=I Envy The Wind
TTITLE8=Big Road Blues
TTITLE9=Hard Time Killing Floor Blues
EXTD=
EXTT0=
EXTT1=
EXTT2=
EXTT3=
EXTT4=
EXTT5=
EXTT6=
EXTT7=
EXTT8=
EXTT9=
PLAYORDER=
